<?xml version="1.0" encoding="utf-8"?>
<!-- Generator: Adobe Illustrator 23.1.0, SVG Export Plug-In . SVG Version: 6.00 Build 0)  -->
<svg version="1.1" id="Capa_1" xmlns="http://www.w3.org/2000/svg" xmlns:xlink="http://www.w3.org/1999/xlink" x="0px" y="0px"
	 viewBox="0 0 595.3 595.3" enable-background="new 0 0 595.3 595.3" xml:space="preserve">
<g>
	<polygon fill="none" stroke="#000000" stroke-width="3" stroke-linejoin="round" stroke-miterlimit="10" points="17.9,219.8 
		232.1,174.2 576.2,388.5 349.2,455.4 	"/>
	<polygon fill="none" stroke="#000000" stroke-width="3" stroke-miterlimit="10" points="17.9,174.2 66.3,200.7 100.5,238.9 
		100.5,278.5 17.9,219.8 	"/>
	<polygon fill="none" stroke="#000000" stroke-width="3" stroke-miterlimit="10" points="231,131.9 281,156.2 317.7,192.9 
		320.3,229.1 232.1,174.2 	"/>
	<polygon fill="none" stroke="#000000" stroke-width="3" stroke-miterlimit="10" points="342.4,402.4 270,353.8 231,349.4 
		231,371.3 349.2,455.4 	"/>
	<polygon fill="none" stroke="#000000" stroke-width="3" stroke-miterlimit="10" points="577.1,336.9 490.8,293.7 452.6,290.7 
		450.9,310.9 576.2,388.3 	"/>
	<polygon fill="none" stroke="#000000" stroke-width="3" stroke-miterlimit="10" points="231,131.9 17.9,174.2 17.9,219.8 
		232.1,174.2 	"/>
	<polygon fill="none" stroke="#000000" stroke-width="3" stroke-linejoin="round" stroke-miterlimit="10" points="342.4,402.4 
		577.1,336.9 576.2,388.3 349.2,455.4 	"/>
	<g>
		<line fill="none" stroke="#000000" stroke-width="3" stroke-miterlimit="10" x1="57.5" y1="248" x2="270.6" y2="198.1"/>
		<line fill="none" stroke="#000000" stroke-width="3" stroke-miterlimit="10" x1="171.7" y1="221.2" x2="419.8" y2="389.3"/>
		<line fill="none" stroke="#000000" stroke-width="3" stroke-miterlimit="10" x1="303.7" y1="422.5" x2="527.9" y2="358"/>
	</g>
	<polygon fill="none" stroke="#000000" stroke-width="3" stroke-miterlimit="10" points="388.7,249.7 164.2,302.7 166.8,325.7 
		390.9,272.3 	"/>
	<g>
		<g>
			<defs>
				<polygon id="SVGID_2_" points="388.7,249.9 164.2,302.9 166.8,325.9 390.9,272.5 				"/>
			</defs>
			<clipPath id="SVGID_3_">
				<use xlink:href="#SVGID_2_"  overflow="visible"/>
			</clipPath>
			<g clip-path="url(#SVGID_3_)">
				<line fill="none" stroke="#000000" stroke-width="0.7652" stroke-miterlimit="10" x1="388.1" y1="245.8" x2="148" y2="302.4"/>
				
					<line fill="none" stroke="#000000" stroke-width="0.7652" stroke-miterlimit="10" x1="390.5" y1="249.2" x2="150.4" y2="305.8"/>
				
					<line fill="none" stroke="#000000" stroke-width="0.7652" stroke-miterlimit="10" x1="392.8" y1="252.5" x2="152.8" y2="309.2"/>
				
					<line fill="none" stroke="#000000" stroke-width="0.7652" stroke-miterlimit="10" x1="395.2" y1="255.9" x2="155.1" y2="312.5"/>
				
					<line fill="none" stroke="#000000" stroke-width="0.7652" stroke-miterlimit="10" x1="397.5" y1="259.3" x2="157.5" y2="315.9"/>
				
					<line fill="none" stroke="#000000" stroke-width="0.7652" stroke-miterlimit="10" x1="399.9" y1="262.6" x2="159.9" y2="319.3"/>
				<line fill="none" stroke="#000000" stroke-width="0.7652" stroke-miterlimit="10" x1="402.3" y1="266" x2="162.2" y2="322.6"/>
				<line fill="none" stroke="#000000" stroke-width="0.7652" stroke-miterlimit="10" x1="404.6" y1="269.4" x2="164.6" y2="326"/>
				<line fill="none" stroke="#000000" stroke-width="0.7652" stroke-miterlimit="10" x1="407" y1="272.7" x2="166.9" y2="329.4"/>
				
					<line fill="none" stroke="#000000" stroke-width="0.5813" stroke-miterlimit="10" x1="149.3" y1="293.5" x2="168.5" y2="348.4"/>
				
					<line fill="none" stroke="#000000" stroke-width="0.5813" stroke-miterlimit="10" x1="154.2" y1="292.4" x2="173.5" y2="347.3"/>
				
					<line fill="none" stroke="#000000" stroke-width="0.5813" stroke-miterlimit="10" x1="159.2" y1="291.3" x2="178.4" y2="346.1"/>
				<line fill="none" stroke="#000000" stroke-width="0.5813" stroke-miterlimit="10" x1="164.1" y1="290.2" x2="183.3" y2="345"/>
				<line fill="none" stroke="#000000" stroke-width="0.5813" stroke-miterlimit="10" x1="169" y1="289" x2="188.3" y2="343.9"/>
				<line fill="none" stroke="#000000" stroke-width="0.5813" stroke-miterlimit="10" x1="174" y1="287.9" x2="193.2" y2="342.8"/>
				
					<line fill="none" stroke="#000000" stroke-width="0.5813" stroke-miterlimit="10" x1="178.9" y1="286.8" x2="198.1" y2="341.7"/>
				
					<line fill="none" stroke="#000000" stroke-width="0.5813" stroke-miterlimit="10" x1="183.8" y1="285.7" x2="203.1" y2="340.5"/>
				<line fill="none" stroke="#000000" stroke-width="0.5813" stroke-miterlimit="10" x1="188.8" y1="284.6" x2="208" y2="339.4"/>
				
					<line fill="none" stroke="#000000" stroke-width="0.5813" stroke-miterlimit="10" x1="193.7" y1="283.4" x2="212.9" y2="338.3"/>
				
					<line fill="none" stroke="#000000" stroke-width="0.5813" stroke-miterlimit="10" x1="198.6" y1="282.3" x2="217.9" y2="337.2"/>
				<line fill="none" stroke="#000000" stroke-width="0.5813" stroke-miterlimit="10" x1="203.6" y1="281.2" x2="222.8" y2="336"/>
				
					<line fill="none" stroke="#000000" stroke-width="0.5813" stroke-miterlimit="10" x1="208.5" y1="280.1" x2="227.7" y2="334.9"/>
				<line fill="none" stroke="#000000" stroke-width="0.5813" stroke-miterlimit="10" x1="213.4" y1="279" x2="232.6" y2="333.8"/>
				
					<line fill="none" stroke="#000000" stroke-width="0.5813" stroke-miterlimit="10" x1="218.4" y1="277.8" x2="237.6" y2="332.7"/>
				
					<line fill="none" stroke="#000000" stroke-width="0.5813" stroke-miterlimit="10" x1="223.3" y1="276.7" x2="242.5" y2="331.6"/>
				
					<line fill="none" stroke="#000000" stroke-width="0.5813" stroke-miterlimit="10" x1="228.2" y1="275.6" x2="247.4" y2="330.4"/>
				
					<line fill="none" stroke="#000000" stroke-width="0.5813" stroke-miterlimit="10" x1="233.1" y1="274.5" x2="252.4" y2="329.3"/>
				
					<line fill="none" stroke="#000000" stroke-width="0.5813" stroke-miterlimit="10" x1="238.1" y1="273.3" x2="257.3" y2="328.2"/>
				<line fill="none" stroke="#000000" stroke-width="0.5813" stroke-miterlimit="10" x1="243" y1="272.2" x2="262.2" y2="327.1"/>
				<line fill="none" stroke="#000000" stroke-width="0.5813" stroke-miterlimit="10" x1="247.9" y1="271.1" x2="267.2" y2="326"/>
				<line fill="none" stroke="#000000" stroke-width="0.5813" stroke-miterlimit="10" x1="252.9" y1="270" x2="272.1" y2="324.8"/>
				<line fill="none" stroke="#000000" stroke-width="0.5813" stroke-miterlimit="10" x1="257.8" y1="268.9" x2="277" y2="323.7"/>
				<line fill="none" stroke="#000000" stroke-width="0.5813" stroke-miterlimit="10" x1="262.7" y1="267.7" x2="282" y2="322.6"/>
				
					<line fill="none" stroke="#000000" stroke-width="0.5813" stroke-miterlimit="10" x1="267.7" y1="266.6" x2="286.9" y2="321.5"/>
				
					<line fill="none" stroke="#000000" stroke-width="0.5813" stroke-miterlimit="10" x1="272.6" y1="265.5" x2="291.8" y2="320.4"/>
				
					<line fill="none" stroke="#000000" stroke-width="0.5813" stroke-miterlimit="10" x1="277.5" y1="264.4" x2="296.8" y2="319.2"/>
				
					<line fill="none" stroke="#000000" stroke-width="0.5813" stroke-miterlimit="10" x1="282.5" y1="263.3" x2="301.7" y2="318.1"/>
				<line fill="none" stroke="#000000" stroke-width="0.5813" stroke-miterlimit="10" x1="287.4" y1="262.1" x2="306.6" y2="317"/>
				<line fill="none" stroke="#000000" stroke-width="0.5813" stroke-miterlimit="10" x1="292.3" y1="261" x2="311.6" y2="315.9"/>
				
					<line fill="none" stroke="#000000" stroke-width="0.5813" stroke-miterlimit="10" x1="297.3" y1="259.9" x2="316.5" y2="314.7"/>
				
					<line fill="none" stroke="#000000" stroke-width="0.5813" stroke-miterlimit="10" x1="302.2" y1="258.8" x2="321.4" y2="313.6"/>
				
					<line fill="none" stroke="#000000" stroke-width="0.5813" stroke-miterlimit="10" x1="307.1" y1="257.7" x2="326.4" y2="312.5"/>
				
					<line fill="none" stroke="#000000" stroke-width="0.5813" stroke-miterlimit="10" x1="312.1" y1="256.5" x2="331.3" y2="311.4"/>
				<line fill="none" stroke="#000000" stroke-width="0.5813" stroke-miterlimit="10" x1="317" y1="255.4" x2="336.2" y2="310.3"/>
				
					<line fill="none" stroke="#000000" stroke-width="0.5813" stroke-miterlimit="10" x1="321.9" y1="254.3" x2="341.2" y2="309.1"/>
				<line fill="none" stroke="#000000" stroke-width="0.5813" stroke-miterlimit="10" x1="326.9" y1="253.2" x2="346.1" y2="308"/>
				<line fill="none" stroke="#000000" stroke-width="0.5813" stroke-miterlimit="10" x1="331.8" y1="252" x2="351" y2="306.9"/>
				<line fill="none" stroke="#000000" stroke-width="0.5813" stroke-miterlimit="10" x1="336.7" y1="250.9" x2="356" y2="305.8"/>
				
					<line fill="none" stroke="#000000" stroke-width="0.5813" stroke-miterlimit="10" x1="341.7" y1="249.8" x2="360.9" y2="304.7"/>
				
					<line fill="none" stroke="#000000" stroke-width="0.5813" stroke-miterlimit="10" x1="346.6" y1="248.7" x2="365.8" y2="303.5"/>
				
					<line fill="none" stroke="#000000" stroke-width="0.5813" stroke-miterlimit="10" x1="351.5" y1="247.6" x2="370.8" y2="302.4"/>
				
					<line fill="none" stroke="#000000" stroke-width="0.5813" stroke-miterlimit="10" x1="356.5" y1="246.4" x2="375.7" y2="301.3"/>
				
					<line fill="none" stroke="#000000" stroke-width="0.5813" stroke-miterlimit="10" x1="361.4" y1="245.3" x2="380.6" y2="300.2"/>
				
					<line fill="none" stroke="#000000" stroke-width="0.5813" stroke-miterlimit="10" x1="366.3" y1="244.2" x2="385.6" y2="299.1"/>
				<line fill="none" stroke="#000000" stroke-width="0.5813" stroke-miterlimit="10" x1="370.7" y1="242.5" x2="390" y2="297.4"/>
				
					<line fill="none" stroke="#000000" stroke-width="0.5813" stroke-miterlimit="10" x1="375.9" y1="241.9" x2="395.2" y2="296.8"/>
				
					<line fill="none" stroke="#000000" stroke-width="0.5813" stroke-miterlimit="10" x1="381.1" y1="241.4" x2="400.4" y2="296.2"/>
				
					<line fill="none" stroke="#000000" stroke-width="0.5813" stroke-miterlimit="10" x1="386.3" y1="240.8" x2="405.6" y2="295.6"/>
				<line fill="none" stroke="#000000" stroke-width="0.5813" stroke-miterlimit="10" x1="391.5" y1="240.2" x2="410.8" y2="295"/>
				<line fill="none" stroke="#000000" stroke-width="0.5813" stroke-miterlimit="10" x1="396.7" y1="239.6" x2="416" y2="294.4"/>
			</g>
		</g>
		<g>
			<polygon id="SVGID_1_" fill="none" stroke="#000000" stroke-width="1.1519" stroke-miterlimit="10" points="388.7,249.9 
				164.2,302.9 166.8,325.9 390.9,272.5 			"/>
		</g>
	</g>
</g>
</svg>
